<?xml version="1.0" encoding="utf-8"?>
<svg version="1.1" id="Layer_1" width="135" xmlns="http://www.w3.org/2000/svg" xmlns:xlink="http://www.w3.org/1999/xlink" x="0px" y="0px"
	 viewBox="0 0 1266.6 431.8" style="enable-background:new 0 0 1266.6 431.8;" xml:space="preserve">
<style type="text/css">
	.st0{fill:#33B672;}
	.st1{fill:#FFFFFF;}
	.st2{fill:none;}
	.st3{fill:#ED1C24;}
</style>
<g>
	<g>
		<path d="M475.5,305.1V140.6h39.8v26.6c11.3-19.9,27.9-29.8,49.7-29.8c11.8,0,21.8,2.8,30.2,8.5c8.3,5.7,14.3,14,17.8,24.9
			c12.8-23,30.5-34.4,53.3-34.4c9.7,0,18.5,2,26.3,6s14.1,9.8,18.8,17.4c3.3,5.2,5.5,10.7,6.7,16.5c1.2,5.8,1.8,13.7,1.8,23.6v105.1
			h-39.8v-86.6c0-10.4-0.4-17.5-1.1-21.4c-0.7-3.9-2.5-7.8-5.3-11.8c-5.4-8.2-13.4-12.4-24-12.4c-10.1,0-17.9,3.3-23.3,9.9
			c-5.4,6.6-8.1,16-8.1,28.3v94h-39.8v-95.5c0-11.8-2.6-20.9-7.7-27.2c-5.1-6.3-12.6-9.4-22.3-9.4c-12.2,0-21.3,4.9-27.5,14.6
			c-3.8,6.6-5.7,18.4-5.7,35.2v82.4L475.5,305.1L475.5,305.1z"/>
		<path d="M756.5,85.2c0-7.3,2.5-13.6,7.6-18.7c5.1-5.1,11.3-7.6,18.7-7.6c6.9,0,12.9,2.6,18.1,7.8c5.2,5.2,7.8,11.4,7.8,18.5
			c0,7.3-2.5,13.5-7.5,18.5c-5,5-11.1,7.5-18.5,7.5c-7.1,0-13.3-2.5-18.5-7.5C759.1,98.7,756.5,92.6,756.5,85.2z M762.8,305.1V140.6
			h39.8v164.5H762.8z"/>
		<path d="M828.2,271.7l34.5-13.9c4.2,14.5,13,21.7,26.4,21.7c6.3,0,11.6-1.8,15.7-5.5c4.1-3.7,6.2-8.2,6.2-13.7
			c0-4.3-1.3-7.7-3.9-10.3c-2.6-2.6-7.4-5.3-14.5-8.2L883,238c-5.9-2.4-10.8-4.6-14.8-6.6c-4-2-7.2-3.7-9.5-5.1
			c-15.1-9.7-22.6-23.3-22.6-40.9c0-14.9,5.4-27.3,16.1-37.1c10.7-9.8,24-14.7,39.8-14.7c26.5,0,44.5,11.4,54.3,34.1l-34.5,11
			c-2.6-9.7-8.6-14.6-17.9-14.6c-4.9,0-9.2,1.8-12.7,5.3c-3.5,3.6-5.3,7.8-5.3,12.8c0,4.5,1.2,7.9,3.5,10.3c1.7,2.4,3.8,4.1,6.6,5.3
			c2.7,1.2,5.7,2.4,9.1,3.6l2.5,1.1l10.3,3.9c6.4,2.4,11,4.3,13.8,5.7c2.8,1.4,6.2,3.4,9.9,6c12.8,9.7,19.2,22.5,19.2,38.4
			c0,15.6-5.8,28.6-17.4,39.1c-11.6,10.4-26.3,15.6-44,15.6C858.3,311.1,837.9,298,828.2,271.7z"/>
		<path d="M962.5,140.6h18.5V84.2h39.8v56.5h31.6V174h-31.6v131.1h-39.8V174h-18.5L962.5,140.6L962.5,140.6z"/>
		<path d="M1195.1,169.1v-28.4h39.8v164.5h-39.8v-30.2c-10.2,22.7-29.6,34.1-58.3,34.1c-23.2,0-42.3-7.9-57.2-23.8
			c-14.9-15.9-22.4-36.2-22.4-61.1s7.7-45.9,23.2-63.1c15.5-17.2,34.3-25.8,56.5-25.8C1163.7,135.3,1183.1,146.6,1195.1,169.1z
			 M1146.8,170.5c-14,0-25.6,5-34.8,14.9c-9.2,9.9-13.8,22.4-13.8,37.3c0,14.7,4.6,26.9,13.8,36.6c9.2,9.7,20.8,14.6,34.8,14.6
			c14.2,0,26-5,35.5-14.9c9.5-9.9,14.2-22.3,14.2-36.9c0-14.7-4.8-26.9-14.4-36.8C1172.6,175.4,1160.8,170.5,1146.8,170.5z"/>
	</g>
	<g>
		<path class="st0" d="M383.4,377.4H42.9c-6.5,0-11.7-5.3-11.7-11.7V69.3c0-6.5,5.3-11.7,11.7-11.7h340.4c6.5,0,11.7,5.3,11.7,11.7
			v296.4C395.1,372.1,389.8,377.4,383.4,377.4z"/>
		<path class="st1" d="M247.9,201.5c5.3,0,9.2,4.1,9.2,9.4c-0.1,4.9-4.4,9.2-9.1,9.2c-4.9,0-9.6-4.6-9.5-9.4
			C238.5,205.7,242.8,201.5,247.9,201.5z"/>
		<path class="st1" d="M216.1,220.9c-5,0-9.5-4.5-9.4-9.4c0.1-5,4.4-9.2,9.6-9.1c5,0,8.9,4.1,9,9.2
			C225.4,216.9,221.5,220.9,216.1,220.9z"/>
		<path class="st1" d="M184.6,220.9c-5.3,0-9.4-4.1-9.3-9.4c0.1-5.1,4-9.1,9.1-9.1c5.1-0.1,9.3,4,9.3,8.9
			C193.8,216.6,189.7,220.9,184.6,220.9z"/>
		<g>
			<path class="st1" d="M228.4,316.2c16.6,0.6,48.6,17.7,48.6,17.7s-1.6-13.4-4-34.4L228.4,316.2z"/>
			<g>
				<path class="st2" d="M247,275.8l-0.2-0.2c-0.8,0.4-1.6,0.8-2.4,1.2C245.4,276.5,246.3,276.1,247,275.8z"/>
				<path class="st2" d="M248.5,147.9c-0.2-0.1-0.4-0.2-0.6-0.4c-0.3-0.2-0.6-0.4-1.1-0.6c-1-0.5-2-0.9-3.1-1.4
					c-0.6-0.3-1.2-0.5-1.7-0.7C244.1,145.7,246.3,146.8,248.5,147.9L248.5,147.9z"/>
				<path class="st2" d="M239.4,143.8c0.8,0.3,1.7,0.6,2.5,1C241,144.4,240.2,144.1,239.4,143.8z"/>
				<path class="st2" d="M236.6,142.8c0.2,0.1,0.4,0.1,0.6,0.2C237,142.9,236.8,142.9,236.6,142.8z"/>
				<path class="st1" d="M283.1,189.7l29.7-17.6c-4.4-11.1-10.7-21.3-18.4-30.2c-3.6-4-7-7.3-9.3-9.5l-25.2,23.1
					C270.6,164.3,278.8,176.1,283.1,189.7z"/>
				<path class="st1" d="M312.8,250.4L283,233c-4.5,14.1-13.2,26.3-24.6,35.2l25.3,23.1C296.4,280.3,306.5,266.3,312.8,250.4z"/>
				<path class="st1" d="M244.4,276.8c-9.3,4.4-19.6,6.8-30.6,6.8c-39.9,0-72.3-32.4-72.3-72.3s32.4-72.3,72.3-72.3
					c8,0,15.6,1.3,22.8,3.7c0.2,0.1,0.4,0.1,0.6,0.2c0.7,0.3,1.4,0.5,2.1,0.8c0.8,0.3,1.7,0.6,2.5,1c0,0,0.1,0,0.1,0
					c0.6,0.2,1.2,0.5,1.7,0.7c1,0.4,2.1,0.9,3.1,1.4c0.4,0.2,0.8,0.4,1.1,0.6c0.2,0.1,0.4,0.2,0.6,0.4l25.5-23.3
					c0.2-0.3,0.4-0.5,0.4-0.6c-17-11.7-37.7-18.6-60-18.6c-3.2,0-6.4,0.2-9.6,0.4c-11.3,1.2-20.6,3.7-28.3,6.6
					c-6.9,2.6-13.4,6-19.6,9.9c-2.6,1.8-4.5,3.2-5.6,4c-10,7.3-17.3,15.4-22.5,22.6c-0.7,0.9-1.3,1.8-1.9,2.7
					c-0.2,0.3-0.4,0.6-0.6,0.9c-2.7,4.1-5.2,8.4-7.3,12.8l0,0c-0.6,1.3-1.2,2.6-1.8,4c-0.3,0.8-0.7,1.6-1,2.5c0,0.1-0.1,0.2-0.1,0.3
					c-4.1,10.5-8.3,26-7.3,44.6c0,0.5,0.1,1.3,0.1,2.2c1.6,22.2,10,42.6,23.2,58.9c1.6,2,3.4,3.9,5.3,5.9c5.1,5.2,10.1,9.6,14.5,13
					c17.6,12.9,39.2,20.5,62.7,20.5c21.7,0,41.8-6.5,58.6-17.7l-26-23.8C246.3,276.1,245.4,276.5,244.4,276.8z"/>
				<path class="st3" d="M241.9,144.8C241.9,144.8,241.9,144.8,241.9,144.8C241.9,144.8,241.9,144.8,241.9,144.8z"/>
			</g>
		</g>
	</g>
</g>
</svg>
